<mxfile host="app.diagrams.net" agent="Mozilla/5.0 (X11; Ubuntu; Linux x86_64; rv:88.0) Gecko/20100101 Firefox/88.0" version="24.7.7">
  <diagram id="R2lEEEUBdFMjLlhIrx00" name="Page-1">
    <mxGraphModel dx="2332" dy="904" grid="1" gridSize="10" guides="1" tooltips="1" connect="1" arrows="1" fold="1" page="1" pageScale="1" pageWidth="850" pageHeight="1100" math="0" shadow="0" extFonts="Permanent Marker^https://fonts.googleapis.com/css?family=Permanent+Marker">
      <root>
        <mxCell id="0" />
        <mxCell id="1" parent="0" />
        <mxCell id="1kpomNZS3KcyZYWg3BV8-3" value="" style="edgeStyle=orthogonalEdgeStyle;rounded=0;orthogonalLoop=1;jettySize=auto;html=1;" parent="1" source="1kpomNZS3KcyZYWg3BV8-1" target="1kpomNZS3KcyZYWg3BV8-2" edge="1">
          <mxGeometry relative="1" as="geometry" />
        </mxCell>
        <mxCell id="AJ0NUxG6uwgQ6QhNlCG--31" value="" style="edgeStyle=orthogonalEdgeStyle;rounded=0;orthogonalLoop=1;jettySize=auto;html=1;" edge="1" parent="1" source="1kpomNZS3KcyZYWg3BV8-1" target="AJ0NUxG6uwgQ6QhNlCG--30">
          <mxGeometry relative="1" as="geometry" />
        </mxCell>
        <mxCell id="1kpomNZS3KcyZYWg3BV8-1" value="PERSON" style="rounded=0;whiteSpace=wrap;html=1;" parent="1" vertex="1">
          <mxGeometry x="360" y="210" width="120" height="60" as="geometry" />
        </mxCell>
        <mxCell id="1kpomNZS3KcyZYWg3BV8-7" style="edgeStyle=orthogonalEdgeStyle;rounded=0;orthogonalLoop=1;jettySize=auto;html=1;exitX=0.5;exitY=0;exitDx=0;exitDy=0;entryX=0.5;entryY=0;entryDx=0;entryDy=0;" parent="1" source="1kpomNZS3KcyZYWg3BV8-2" target="1kpomNZS3KcyZYWg3BV8-5" edge="1">
          <mxGeometry relative="1" as="geometry" />
        </mxCell>
        <mxCell id="1kpomNZS3KcyZYWg3BV8-2" value="" style="triangle;whiteSpace=wrap;html=1;rounded=0;rotation=90;" parent="1" vertex="1">
          <mxGeometry x="390" y="340" width="60" height="80" as="geometry" />
        </mxCell>
        <mxCell id="1kpomNZS3KcyZYWg3BV8-22" value="" style="edgeStyle=orthogonalEdgeStyle;rounded=0;orthogonalLoop=1;jettySize=auto;html=1;" parent="1" source="1kpomNZS3KcyZYWg3BV8-4" target="1kpomNZS3KcyZYWg3BV8-21" edge="1">
          <mxGeometry relative="1" as="geometry" />
        </mxCell>
        <mxCell id="1kpomNZS3KcyZYWg3BV8-38" style="edgeStyle=orthogonalEdgeStyle;rounded=0;orthogonalLoop=1;jettySize=auto;html=1;exitX=1;exitY=1;exitDx=0;exitDy=0;entryX=0.5;entryY=0;entryDx=0;entryDy=0;" parent="1" source="1kpomNZS3KcyZYWg3BV8-4" target="1kpomNZS3KcyZYWg3BV8-17" edge="1">
          <mxGeometry relative="1" as="geometry" />
        </mxCell>
        <mxCell id="1kpomNZS3KcyZYWg3BV8-39" style="edgeStyle=orthogonalEdgeStyle;rounded=0;orthogonalLoop=1;jettySize=auto;html=1;exitX=0.5;exitY=1;exitDx=0;exitDy=0;" parent="1" source="1kpomNZS3KcyZYWg3BV8-4" target="1kpomNZS3KcyZYWg3BV8-29" edge="1">
          <mxGeometry relative="1" as="geometry" />
        </mxCell>
        <mxCell id="AJ0NUxG6uwgQ6QhNlCG--4" style="edgeStyle=orthogonalEdgeStyle;rounded=0;orthogonalLoop=1;jettySize=auto;html=1;exitX=0.25;exitY=1;exitDx=0;exitDy=0;entryX=0.5;entryY=0;entryDx=0;entryDy=0;" edge="1" parent="1" source="1kpomNZS3KcyZYWg3BV8-4" target="AJ0NUxG6uwgQ6QhNlCG--3">
          <mxGeometry relative="1" as="geometry" />
        </mxCell>
        <mxCell id="1kpomNZS3KcyZYWg3BV8-4" value="CUSTOMER" style="rounded=0;whiteSpace=wrap;html=1;" parent="1" vertex="1">
          <mxGeometry x="250" y="410" width="120" height="60" as="geometry" />
        </mxCell>
        <mxCell id="1kpomNZS3KcyZYWg3BV8-10" value="" style="edgeStyle=orthogonalEdgeStyle;rounded=0;orthogonalLoop=1;jettySize=auto;html=1;" parent="1" source="1kpomNZS3KcyZYWg3BV8-5" target="1kpomNZS3KcyZYWg3BV8-9" edge="1">
          <mxGeometry relative="1" as="geometry" />
        </mxCell>
        <mxCell id="1kpomNZS3KcyZYWg3BV8-15" style="edgeStyle=orthogonalEdgeStyle;rounded=0;orthogonalLoop=1;jettySize=auto;html=1;exitX=1;exitY=1;exitDx=0;exitDy=0;entryX=0;entryY=0.5;entryDx=0;entryDy=0;" parent="1" source="1kpomNZS3KcyZYWg3BV8-5" target="1kpomNZS3KcyZYWg3BV8-13" edge="1">
          <mxGeometry relative="1" as="geometry" />
        </mxCell>
        <mxCell id="1kpomNZS3KcyZYWg3BV8-16" style="edgeStyle=orthogonalEdgeStyle;rounded=0;orthogonalLoop=1;jettySize=auto;html=1;exitX=1;exitY=0;exitDx=0;exitDy=0;entryX=0;entryY=0.5;entryDx=0;entryDy=0;" parent="1" source="1kpomNZS3KcyZYWg3BV8-5" target="1kpomNZS3KcyZYWg3BV8-11" edge="1">
          <mxGeometry relative="1" as="geometry" />
        </mxCell>
        <mxCell id="1kpomNZS3KcyZYWg3BV8-5" value="EMPLOYEE" style="rounded=0;whiteSpace=wrap;html=1;" parent="1" vertex="1">
          <mxGeometry x="470" y="410" width="120" height="60" as="geometry" />
        </mxCell>
        <mxCell id="1kpomNZS3KcyZYWg3BV8-44" value="" style="edgeStyle=orthogonalEdgeStyle;rounded=0;orthogonalLoop=1;jettySize=auto;html=1;" parent="1" source="1kpomNZS3KcyZYWg3BV8-8" target="1kpomNZS3KcyZYWg3BV8-4" edge="1">
          <mxGeometry relative="1" as="geometry" />
        </mxCell>
        <mxCell id="1kpomNZS3KcyZYWg3BV8-8" value="ISA" style="text;html=1;align=center;verticalAlign=middle;whiteSpace=wrap;rounded=0;" parent="1" vertex="1">
          <mxGeometry x="390" y="360" width="60" height="30" as="geometry" />
        </mxCell>
        <mxCell id="1kpomNZS3KcyZYWg3BV8-9" value="&lt;u&gt;EMPLOYEE_ID&lt;/u&gt;" style="ellipse;whiteSpace=wrap;html=1;" parent="1" vertex="1">
          <mxGeometry x="540" y="580" width="120" height="80" as="geometry" />
        </mxCell>
        <mxCell id="1kpomNZS3KcyZYWg3BV8-11" value="EMPLOYEE_JOB" style="ellipse;whiteSpace=wrap;html=1;" parent="1" vertex="1">
          <mxGeometry x="650" y="340" width="120" height="80" as="geometry" />
        </mxCell>
        <mxCell id="1kpomNZS3KcyZYWg3BV8-13" value="EMPLOYEE&lt;div&gt;SALARY&lt;/div&gt;" style="ellipse;whiteSpace=wrap;html=1;" parent="1" vertex="1">
          <mxGeometry x="630" y="470" width="120" height="80" as="geometry" />
        </mxCell>
        <mxCell id="1kpomNZS3KcyZYWg3BV8-17" value="CUSTOMER&amp;nbsp;&lt;div&gt;PHONE NUMBER&lt;/div&gt;" style="ellipse;whiteSpace=wrap;html=1;" parent="1" vertex="1">
          <mxGeometry x="400" y="580" width="120" height="80" as="geometry" />
        </mxCell>
        <mxCell id="1kpomNZS3KcyZYWg3BV8-24" value="" style="edgeStyle=orthogonalEdgeStyle;rounded=0;orthogonalLoop=1;jettySize=auto;html=1;" parent="1" source="1kpomNZS3KcyZYWg3BV8-21" target="1kpomNZS3KcyZYWg3BV8-23" edge="1">
          <mxGeometry relative="1" as="geometry" />
        </mxCell>
        <mxCell id="1kpomNZS3KcyZYWg3BV8-48" value="" style="edgeStyle=orthogonalEdgeStyle;rounded=0;orthogonalLoop=1;jettySize=auto;html=1;" parent="1" source="1kpomNZS3KcyZYWg3BV8-21" target="1kpomNZS3KcyZYWg3BV8-47" edge="1">
          <mxGeometry relative="1" as="geometry" />
        </mxCell>
        <mxCell id="1kpomNZS3KcyZYWg3BV8-58" value="" style="edgeStyle=orthogonalEdgeStyle;rounded=0;orthogonalLoop=1;jettySize=auto;html=1;" parent="1" source="1kpomNZS3KcyZYWg3BV8-21" target="1kpomNZS3KcyZYWg3BV8-57" edge="1">
          <mxGeometry relative="1" as="geometry" />
        </mxCell>
        <mxCell id="AJ0NUxG6uwgQ6QhNlCG--21" value="" style="edgeStyle=orthogonalEdgeStyle;rounded=0;orthogonalLoop=1;jettySize=auto;html=1;" edge="1" parent="1" source="1kpomNZS3KcyZYWg3BV8-21" target="1kpomNZS3KcyZYWg3BV8-52">
          <mxGeometry relative="1" as="geometry" />
        </mxCell>
        <mxCell id="1kpomNZS3KcyZYWg3BV8-21" value="ORDERS" style="rhombus;whiteSpace=wrap;html=1;" parent="1" vertex="1">
          <mxGeometry x="10" y="400" width="80" height="80" as="geometry" />
        </mxCell>
        <mxCell id="1kpomNZS3KcyZYWg3BV8-27" value="" style="edgeStyle=orthogonalEdgeStyle;rounded=0;orthogonalLoop=1;jettySize=auto;html=1;" parent="1" source="1kpomNZS3KcyZYWg3BV8-23" target="1kpomNZS3KcyZYWg3BV8-26" edge="1">
          <mxGeometry relative="1" as="geometry" />
        </mxCell>
        <mxCell id="1kpomNZS3KcyZYWg3BV8-46" value="" style="edgeStyle=orthogonalEdgeStyle;rounded=0;orthogonalLoop=1;jettySize=auto;html=1;" parent="1" source="1kpomNZS3KcyZYWg3BV8-23" target="1kpomNZS3KcyZYWg3BV8-45" edge="1">
          <mxGeometry relative="1" as="geometry" />
        </mxCell>
        <mxCell id="1kpomNZS3KcyZYWg3BV8-23" value="MENU_ITEM" style="whiteSpace=wrap;html=1;" parent="1" vertex="1">
          <mxGeometry x="-190" y="410" width="120" height="60" as="geometry" />
        </mxCell>
        <mxCell id="1kpomNZS3KcyZYWg3BV8-26" value="&lt;u&gt;ITEM_ID&lt;/u&gt;" style="ellipse;whiteSpace=wrap;html=1;" parent="1" vertex="1">
          <mxGeometry x="-260" y="530" width="120" height="80" as="geometry" />
        </mxCell>
        <mxCell id="1kpomNZS3KcyZYWg3BV8-29" value="&lt;u&gt;CUSTOMER_ID&lt;/u&gt;" style="ellipse;whiteSpace=wrap;html=1;" parent="1" vertex="1">
          <mxGeometry x="305" y="660" width="120" height="80" as="geometry" />
        </mxCell>
        <mxCell id="1kpomNZS3KcyZYWg3BV8-45" value="PRICE" style="ellipse;whiteSpace=wrap;html=1;" parent="1" vertex="1">
          <mxGeometry x="-260" y="280" width="120" height="80" as="geometry" />
        </mxCell>
        <mxCell id="1kpomNZS3KcyZYWg3BV8-50" value="" style="edgeStyle=orthogonalEdgeStyle;rounded=0;orthogonalLoop=1;jettySize=auto;html=1;" parent="1" source="1kpomNZS3KcyZYWg3BV8-47" target="1kpomNZS3KcyZYWg3BV8-49" edge="1">
          <mxGeometry relative="1" as="geometry" />
        </mxCell>
        <mxCell id="1kpomNZS3KcyZYWg3BV8-47" value="BILL" style="whiteSpace=wrap;html=1;" parent="1" vertex="1">
          <mxGeometry x="-10" y="250" width="120" height="60" as="geometry" />
        </mxCell>
        <mxCell id="1kpomNZS3KcyZYWg3BV8-49" value="&lt;u&gt;BILL_NO.&lt;/u&gt;" style="ellipse;whiteSpace=wrap;html=1;" parent="1" vertex="1">
          <mxGeometry x="-10" y="120" width="120" height="80" as="geometry" />
        </mxCell>
        <mxCell id="1kpomNZS3KcyZYWg3BV8-52" value="&lt;div&gt;DESCRIPTION&lt;/div&gt;" style="ellipse;whiteSpace=wrap;html=1;" parent="1" vertex="1">
          <mxGeometry x="30" y="660" width="120" height="80" as="geometry" />
        </mxCell>
        <mxCell id="1kpomNZS3KcyZYWg3BV8-57" value="&lt;u&gt;ORDER_ID&lt;/u&gt;" style="ellipse;whiteSpace=wrap;html=1;" parent="1" vertex="1">
          <mxGeometry x="-90" y="680" width="120" height="80" as="geometry" />
        </mxCell>
        <mxCell id="AJ0NUxG6uwgQ6QhNlCG--2" value="" style="triangle;whiteSpace=wrap;html=1;rounded=0;rotation=90;" vertex="1" parent="1">
          <mxGeometry x="200" y="520" width="60" height="80" as="geometry" />
        </mxCell>
        <mxCell id="AJ0NUxG6uwgQ6QhNlCG--7" style="edgeStyle=orthogonalEdgeStyle;rounded=0;orthogonalLoop=1;jettySize=auto;html=1;entryX=0.5;entryY=0;entryDx=0;entryDy=0;" edge="1" parent="1" source="AJ0NUxG6uwgQ6QhNlCG--3" target="AJ0NUxG6uwgQ6QhNlCG--12">
          <mxGeometry relative="1" as="geometry">
            <mxPoint x="230" y="730" as="targetPoint" />
          </mxGeometry>
        </mxCell>
        <mxCell id="AJ0NUxG6uwgQ6QhNlCG--22" style="edgeStyle=orthogonalEdgeStyle;rounded=0;orthogonalLoop=1;jettySize=auto;html=1;exitX=0;exitY=0.75;exitDx=0;exitDy=0;entryX=0.5;entryY=0;entryDx=0;entryDy=0;" edge="1" parent="1" source="AJ0NUxG6uwgQ6QhNlCG--3" target="AJ0NUxG6uwgQ6QhNlCG--9">
          <mxGeometry relative="1" as="geometry" />
        </mxCell>
        <mxCell id="AJ0NUxG6uwgQ6QhNlCG--3" value="ISA" style="text;html=1;align=center;verticalAlign=middle;whiteSpace=wrap;rounded=0;" vertex="1" parent="1">
          <mxGeometry x="200" y="540" width="60" height="30" as="geometry" />
        </mxCell>
        <mxCell id="AJ0NUxG6uwgQ6QhNlCG--15" style="edgeStyle=orthogonalEdgeStyle;rounded=0;orthogonalLoop=1;jettySize=auto;html=1;exitX=0;exitY=1;exitDx=0;exitDy=0;entryX=0.5;entryY=0;entryDx=0;entryDy=0;" edge="1" parent="1" source="AJ0NUxG6uwgQ6QhNlCG--9" target="AJ0NUxG6uwgQ6QhNlCG--14">
          <mxGeometry relative="1" as="geometry" />
        </mxCell>
        <mxCell id="AJ0NUxG6uwgQ6QhNlCG--29" value="" style="edgeStyle=orthogonalEdgeStyle;rounded=0;orthogonalLoop=1;jettySize=auto;html=1;" edge="1" parent="1" source="AJ0NUxG6uwgQ6QhNlCG--9" target="AJ0NUxG6uwgQ6QhNlCG--28">
          <mxGeometry relative="1" as="geometry" />
        </mxCell>
        <mxCell id="AJ0NUxG6uwgQ6QhNlCG--35" style="edgeStyle=orthogonalEdgeStyle;rounded=0;orthogonalLoop=1;jettySize=auto;html=1;exitX=0.5;exitY=1;exitDx=0;exitDy=0;entryX=0.5;entryY=0;entryDx=0;entryDy=0;" edge="1" parent="1" source="AJ0NUxG6uwgQ6QhNlCG--9" target="AJ0NUxG6uwgQ6QhNlCG--33">
          <mxGeometry relative="1" as="geometry" />
        </mxCell>
        <mxCell id="AJ0NUxG6uwgQ6QhNlCG--9" value="DINE IN" style="rounded=0;whiteSpace=wrap;html=1;" vertex="1" parent="1">
          <mxGeometry x="110" y="760" width="120" height="60" as="geometry" />
        </mxCell>
        <mxCell id="AJ0NUxG6uwgQ6QhNlCG--23" value="" style="edgeStyle=orthogonalEdgeStyle;rounded=0;orthogonalLoop=1;jettySize=auto;html=1;" edge="1" parent="1" source="AJ0NUxG6uwgQ6QhNlCG--12" target="AJ0NUxG6uwgQ6QhNlCG--18">
          <mxGeometry relative="1" as="geometry" />
        </mxCell>
        <mxCell id="AJ0NUxG6uwgQ6QhNlCG--27" style="edgeStyle=orthogonalEdgeStyle;rounded=0;orthogonalLoop=1;jettySize=auto;html=1;exitX=0.25;exitY=1;exitDx=0;exitDy=0;entryX=0.5;entryY=0;entryDx=0;entryDy=0;" edge="1" parent="1" source="AJ0NUxG6uwgQ6QhNlCG--12" target="AJ0NUxG6uwgQ6QhNlCG--24">
          <mxGeometry relative="1" as="geometry" />
        </mxCell>
        <mxCell id="AJ0NUxG6uwgQ6QhNlCG--12" value="DELIVERY" style="rounded=0;whiteSpace=wrap;html=1;" vertex="1" parent="1">
          <mxGeometry x="240" y="760" width="120" height="60" as="geometry" />
        </mxCell>
        <mxCell id="AJ0NUxG6uwgQ6QhNlCG--14" value="TABLE&amp;nbsp; NUMBER" style="ellipse;whiteSpace=wrap;html=1;" vertex="1" parent="1">
          <mxGeometry x="-130" y="860" width="120" height="80" as="geometry" />
        </mxCell>
        <mxCell id="AJ0NUxG6uwgQ6QhNlCG--18" value="ADDRESS" style="ellipse;whiteSpace=wrap;html=1;" vertex="1" parent="1">
          <mxGeometry x="305" y="870" width="120" height="80" as="geometry" />
        </mxCell>
        <mxCell id="AJ0NUxG6uwgQ6QhNlCG--24" value="&lt;div&gt;EMPLOYEE_ID&lt;/div&gt;" style="ellipse;whiteSpace=wrap;html=1;align=center;dashed=1;" vertex="1" parent="1">
          <mxGeometry x="160" y="910" width="100" height="40" as="geometry" />
        </mxCell>
        <mxCell id="AJ0NUxG6uwgQ6QhNlCG--28" value="FEEDBACK" style="ellipse;whiteSpace=wrap;html=1;align=center;" vertex="1" parent="1">
          <mxGeometry x="-10" y="970" width="100" height="40" as="geometry" />
        </mxCell>
        <mxCell id="AJ0NUxG6uwgQ6QhNlCG--30" value="NAME" style="ellipse;whiteSpace=wrap;html=1;align=center;" vertex="1" parent="1">
          <mxGeometry x="370" y="100" width="100" height="40" as="geometry" />
        </mxCell>
        <mxCell id="AJ0NUxG6uwgQ6QhNlCG--33" value="NUMBER OF PEOPLE" style="ellipse;whiteSpace=wrap;html=1;align=center;" vertex="1" parent="1">
          <mxGeometry x="80" y="950" width="100" height="40" as="geometry" />
        </mxCell>
      </root>
    </mxGraphModel>
  </diagram>
</mxfile>
